<?xml version="1.0" encoding="utf-8"?>
<!-- Generator: Adobe Illustrator 27.5.0, SVG Export Plug-In . SVG Version: 6.00 Build 0)  -->
<svg version="1.1" id="Artwork" xmlns="http://www.w3.org/2000/svg" xmlns:xlink="http://www.w3.org/1999/xlink" x="0px" y="0px"
	 viewBox="0 0 1200 1200" style="enable-background:new 0 0 1200 1200;" xml:space="preserve">
<rect style="fill:#FFFFFF;" width="1200" height="1200"/>
<rect x="763.636" y="259.091" style="fill:none;stroke:#000000;stroke-width:13.6364;stroke-linecap:round;stroke-linejoin:round;stroke-miterlimit:10;" width="109.091" height="13.636"/>
<polygon style="fill:none;stroke:#000000;stroke-width:13.6364;stroke-linecap:round;stroke-linejoin:round;stroke-miterlimit:10;" points="
	818.182,354.546 763.636,300 872.727,300 927.273,354.546 "/>
<polygon style="fill:none;stroke:#000000;stroke-width:13.6364;stroke-linecap:round;stroke-linejoin:round;stroke-miterlimit:10;" points="
	300,654.546 300,627.273 327.273,654.546 327.273,681.818 "/>
<rect x="218.182" y="518.182" style="fill:none;stroke:#000000;stroke-width:13.6364;stroke-linecap:round;stroke-linejoin:round;stroke-miterlimit:10;" width="27.273" height="109.091"/>
<polygon style="fill:none;stroke:#000000;stroke-width:13.6364;stroke-linecap:round;stroke-linejoin:round;stroke-miterlimit:10;" points="
	272.727,627.273 327.273,572.727 327.273,463.636 272.727,518.182 "/>
<path style="fill:none;stroke:#000000;stroke-width:13.6364;stroke-linecap:round;stroke-linejoin:round;stroke-miterlimit:10;" d="
	M1009.091,436.364l-27.273-27.273H872.727l-54.545-54.545h-54.545L654.545,245.454v-54.545c0-20.177-10.985-37.753-27.273-47.189
	v-7.357c0-15.062-12.21-27.273-27.273-27.273s-27.273,12.211-27.273,27.273v7.357c-16.288,9.435-27.273,27.011-27.273,47.189
	l-54.545,54.545l-54.546-54.545l-27.273,27.273l54.546,54.546L436.364,300l-54.545-54.546l-27.273,27.273l54.545,54.545
	l-81.818,81.818v54.546h54.546v218.182h-54.546v54.545l54.546,54.545h54.545v27.273h-27.273c-15.062,0-27.273,12.21-27.273,27.273
	c0,15.063,12.21,27.273,27.273,27.273h27.273v136.364h27.273l-27.273,27.273v54.545h109.091l163.636-163.636h109.091L845.455,900
	l-27.273-27.273h54.545L900,845.455L804.545,750l13.636-13.636v-54.545l109.091-109.091l-54.545-54.545h54.545l27.273-27.273
	l-27.273-27.273h54.545L1009.091,436.364z"/>
<g>
	<g>
		<rect x="763.636" y="259.091" style="fill:#FFFFFF;" width="109.091" height="13.636"/>
	</g>
</g>
<g>
	<polygon style="fill:#FFFFFF;" points="818.182,354.546 763.636,300 872.727,300 927.273,354.546 	"/>
</g>
<g>
	<polygon style="fill:#FFFFFF;" points="300,654.546 300,627.273 327.273,654.546 327.273,681.818 	"/>
</g>
<g>
	<rect x="218.182" y="518.182" style="fill:#FFFFFF;" width="27.273" height="109.091"/>
</g>
<g>
	<polygon style="fill:#FFFFFF;" points="272.727,627.273 327.273,572.727 327.273,463.636 272.727,518.182 	"/>
</g>
<g>
	<path style="fill:#FFFFFF;" d="M1009.091,436.364l-27.273-27.273H872.727l-54.545-54.545h-54.545L654.545,245.454v-54.545
		c0-20.177-10.985-37.753-27.273-47.189v-7.357c0-15.062-12.21-27.273-27.273-27.273s-27.273,12.211-27.273,27.273v7.357
		c-16.288,9.435-27.273,27.011-27.273,47.189l-54.545,54.545l-54.546-54.545l-27.273,27.273l54.546,54.546L436.364,300
		l-54.545-54.546l-27.273,27.273l54.545,54.545l-81.818,81.818v54.546h54.546v218.182h-54.546v54.545l54.546,54.545h54.545v27.273
		h-27.273c-15.062,0-27.273,12.21-27.273,27.273c0,15.063,12.21,27.273,27.273,27.273h27.273v136.364h27.273l-27.273,27.273v54.545
		h109.091l163.636-163.636h109.091L845.455,900l-27.273-27.273h54.545L900,845.455L804.545,750l13.636-13.636v-54.545
		l109.091-109.091l-54.545-54.545h54.545l27.273-27.273l-27.273-27.273h54.545L1009.091,436.364z"/>
</g>
<g>
	
		<polygon style="fill:none;stroke:#000000;stroke-width:5.1136;stroke-linecap:round;stroke-linejoin:round;stroke-miterlimit:10;" points="
		545.455,409.091 545.455,354.546 518.182,381.818 	"/>
	
		<polygon style="fill:none;stroke:#000000;stroke-width:5.1136;stroke-linecap:round;stroke-linejoin:round;stroke-miterlimit:10;" points="
		654.545,354.546 654.545,409.091 681.818,381.818 	"/>
	
		<rect x="907.988" y="471.624" transform="matrix(0.7071 -0.7071 0.7071 0.7071 -75.5338 799.463)" style="fill:none;stroke:#000000;stroke-width:5.1136;stroke-linecap:round;stroke-linejoin:round;stroke-miterlimit:10;" width="38.569" height="38.569"/>
	
		<polygon style="fill:none;stroke:#000000;stroke-width:5.1136;stroke-linecap:round;stroke-linejoin:round;stroke-miterlimit:10;" points="
		872.731,490.909 900,490.909 927.273,463.636 900.003,463.636 	"/>
	
		<polygon style="fill:none;stroke:#000000;stroke-width:5.1136;stroke-linecap:round;stroke-linejoin:round;stroke-miterlimit:10;" points="
		872.727,463.636 845.455,463.636 818.182,463.636 845.455,490.909 845.458,490.909 872.731,463.636 	"/>
	
		<polygon style="fill:none;stroke:#000000;stroke-width:5.1136;stroke-linecap:round;stroke-linejoin:round;stroke-miterlimit:10;" points="
		872.731,490.909 900.003,518.182 927.273,518.182 900,490.909 	"/>
	
		<rect x="859.091" y="485.261" transform="matrix(0.7071 -0.7071 0.7071 0.7071 -105.1446 755.2499)" style="fill:none;stroke:#000000;stroke-width:5.1136;stroke-linecap:round;stroke-linejoin:round;stroke-miterlimit:10;" width="0.003" height="38.569"/>
	
		<rect x="962.533" y="417.079" transform="matrix(0.7071 -0.7071 0.7071 0.7071 -20.9878 822.0582)" style="fill:none;stroke:#000000;stroke-width:5.1136;stroke-linecap:round;stroke-linejoin:round;stroke-miterlimit:10;" width="38.569" height="38.569"/>
	
		<polygon style="fill:none;stroke:#000000;stroke-width:5.1136;stroke-linecap:round;stroke-linejoin:round;stroke-miterlimit:10;" points="
		954.545,436.364 981.818,409.091 954.545,409.091 927.273,436.364 	"/>
	
		<polygon style="fill:none;stroke:#000000;stroke-width:5.1136;stroke-linecap:round;stroke-linejoin:round;stroke-miterlimit:10;" points="
		900,436.364 927.273,409.091 872.727,409.091 872.727,436.364 	"/>
	
		<polygon style="fill:none;stroke:#000000;stroke-width:5.1136;stroke-linecap:round;stroke-linejoin:round;stroke-miterlimit:10;" points="
		872.727,436.364 900,463.636 900.003,463.636 927.273,463.636 900,436.364 	"/>
	
		<polygon style="fill:none;stroke:#000000;stroke-width:5.1136;stroke-linecap:round;stroke-linejoin:round;stroke-miterlimit:10;" points="
		927.273,436.364 954.549,463.636 981.818,463.636 954.545,436.364 	"/>
	
		<polygon style="fill:none;stroke:#000000;stroke-width:5.1136;stroke-linecap:round;stroke-linejoin:round;stroke-miterlimit:10;" points="
		681.818,900 681.818,954.546 709.091,927.273 709.091,872.727 	"/>
	
		<polygon style="fill:none;stroke:#000000;stroke-width:5.1136;stroke-linecap:round;stroke-linejoin:round;stroke-miterlimit:10;" points="
		545.455,1036.364 545.455,1090.909 654.545,981.818 654.545,927.273 	"/>
	
		<polygon style="fill:none;stroke:#000000;stroke-width:5.1136;stroke-linecap:round;stroke-linejoin:round;stroke-miterlimit:10;" points="
		518.182,1036.364 518.182,1063.636 463.636,1063.636 463.636,1036.364 436.364,1036.364 436.364,1090.909 545.455,1090.909 
		545.455,1036.364 	"/>
	
		<polygon style="fill:none;stroke:#000000;stroke-width:5.1136;stroke-linecap:round;stroke-linejoin:round;stroke-miterlimit:10;" points="
		681.818,900 709.091,872.727 709.091,845.455 681.818,872.727 654.545,900 	"/>
	
		<polygon style="fill:none;stroke:#000000;stroke-width:5.1136;stroke-linecap:round;stroke-linejoin:round;stroke-miterlimit:10;" points="
		545.455,1009.091 518.182,1036.364 545.455,1036.364 654.545,927.273 627.273,927.273 	"/>
	
		<polygon style="fill:none;stroke:#000000;stroke-width:5.1136;stroke-linecap:round;stroke-linejoin:round;stroke-miterlimit:10;" points="
		518.182,981.818 490.909,981.818 463.636,1009.091 436.364,1036.364 463.636,1036.364 	"/>
	
		<polygon style="fill:none;stroke:#000000;stroke-width:5.1136;stroke-linecap:round;stroke-linejoin:round;stroke-miterlimit:10;" points="
		627.273,927.273 654.545,927.273 681.818,900 654.545,900 	"/>
	
		<polygon style="fill:none;stroke:#000000;stroke-width:5.1136;stroke-linecap:round;stroke-linejoin:round;stroke-miterlimit:10;" points="
		709.091,790.909 681.818,818.182 681.818,872.727 709.091,845.455 709.091,818.182 736.364,790.909 763.636,763.636 
		790.909,736.364 804.545,750 818.182,736.364 818.182,681.818 	"/>
	
		<polygon style="fill:none;stroke:#000000;stroke-width:5.1136;stroke-linecap:round;stroke-linejoin:round;stroke-miterlimit:10;" points="
		654.545,900 654.545,845.455 545.455,954.546 545.455,1009.091 627.273,927.273 	"/>
	
		<polygon style="fill:none;stroke:#000000;stroke-width:5.1136;stroke-linecap:round;stroke-linejoin:round;stroke-miterlimit:10;" points="
		490.909,981.818 518.182,981.818 518.182,1009.091 545.455,1009.091 545.455,954.546 436.364,954.546 436.364,1009.091 
		463.636,1009.091 463.636,981.818 	"/>
	
		<polygon style="fill:none;stroke:#000000;stroke-width:5.1136;stroke-linecap:round;stroke-linejoin:round;stroke-miterlimit:10;" points="
		763.636,681.818 736.364,681.818 709.091,681.818 709.091,790.909 818.182,681.818 790.909,681.818 	"/>
	
		<polygon style="fill:none;stroke:#000000;stroke-width:5.1136;stroke-linecap:round;stroke-linejoin:round;stroke-miterlimit:10;" points="
		600,790.909 572.727,818.182 681.818,818.182 709.091,790.909 	"/>
	
		<polygon style="fill:none;stroke:#000000;stroke-width:5.1136;stroke-linecap:round;stroke-linejoin:round;stroke-miterlimit:10;" points="
		545.455,954.546 654.545,845.455 545.455,845.455 436.364,954.546 	"/>
	<path style="fill:none;stroke:#000000;stroke-width:5.1136;stroke-linecap:round;stroke-linejoin:round;stroke-miterlimit:10;" d="
		M490.909,790.909V572.727L381.818,463.636v218.182l54.545,54.545L490.909,790.909z M409.091,545.455L463.636,600v109.091
		l-54.546-54.545V545.455z"/>
	
		<polygon style="fill:none;stroke:#000000;stroke-width:5.1136;stroke-linecap:round;stroke-linejoin:round;stroke-miterlimit:10;" points="
		545.455,627.273 490.909,572.727 490.909,790.909 545.455,736.364 	"/>
	
		<polygon style="fill:none;stroke:#000000;stroke-width:5.1136;stroke-linecap:round;stroke-linejoin:round;stroke-miterlimit:10;" points="
		709.091,354.546 681.818,381.818 654.545,409.091 600,463.636 545.455,409.091 518.182,381.818 490.909,354.546 545.455,300 
		545.455,245.454 436.364,354.546 600,518.182 763.636,354.546 654.545,245.454 654.545,300 	"/>
	
		<polygon style="fill:none;stroke:#000000;stroke-width:5.1136;stroke-linecap:round;stroke-linejoin:round;stroke-miterlimit:10;" points="
		518.182,381.818 545.455,354.546 545.455,300 490.909,354.546 	"/>
	
		<polygon style="fill:none;stroke:#000000;stroke-width:5.1136;stroke-linecap:round;stroke-linejoin:round;stroke-miterlimit:10;" points="
		709.091,354.546 654.545,300 654.545,354.546 681.818,381.818 	"/>
	
		<polygon style="fill:none;stroke:#000000;stroke-width:5.1136;stroke-linecap:round;stroke-linejoin:round;stroke-miterlimit:10;" points="
		436.364,354.546 436.364,409.091 545.455,518.182 600,518.182 	"/>
	
		<polygon style="fill:none;stroke:#000000;stroke-width:5.1136;stroke-linecap:round;stroke-linejoin:round;stroke-miterlimit:10;" points="
		654.545,518.182 709.091,463.636 736.364,463.636 763.636,463.636 763.636,409.091 763.636,354.546 600,518.182 	"/>
	
		<rect x="763.636" y="354.546" style="fill:none;stroke:#000000;stroke-width:5.1136;stroke-linecap:round;stroke-linejoin:round;stroke-miterlimit:10;" width="54.545" height="54.545"/>
	
		<polygon style="fill:none;stroke:#000000;stroke-width:5.1136;stroke-linecap:round;stroke-linejoin:round;stroke-miterlimit:10;" points="
		872.727,463.636 818.182,409.091 763.636,409.091 763.636,463.636 790.909,463.636 818.182,463.636 845.455,463.636 	"/>
	<path style="fill:none;stroke:#000000;stroke-width:5.1136;stroke-linecap:round;stroke-linejoin:round;stroke-miterlimit:10;" d="
		M545.455,300v54.546v54.545L600,463.636v-27.273l-27.273-27.273L600,381.818l-27.273-27.273L600,327.273L572.727,300L600,272.727
		v-27.273c-30.126,0-54.545-24.42-54.545-54.545v54.545V300z"/>
	<path style="fill:none;stroke:#000000;stroke-width:5.1136;stroke-linecap:round;stroke-linejoin:round;stroke-miterlimit:10;" d="
		M600,245.454v27.273L627.273,300L600,327.273l27.273,27.273L600,381.818l27.273,27.273L600,436.364v27.273l54.545-54.546v-54.545
		V300v-54.546v-54.545C654.545,221.035,630.126,245.454,600,245.454z"/>
	<path style="fill:none;stroke:#000000;stroke-width:5.1136;stroke-linecap:round;stroke-linejoin:round;stroke-miterlimit:10;" d="
		M600,245.454c30.126,0,54.545-24.42,54.545-54.545c0-20.178-10.986-37.755-27.273-47.19v47.19
		c0,15.061-12.211,27.273-27.273,27.273s-27.273-12.211-27.273-27.273v-47.19c-16.29,9.435-27.273,27.012-27.273,47.19
		C545.455,221.035,569.874,245.454,600,245.454z"/>
	
		<polygon style="fill:none;stroke:#000000;stroke-width:5.1136;stroke-linecap:round;stroke-linejoin:round;stroke-miterlimit:10;" points="
		709.091,463.636 654.545,518.182 709.091,518.182 763.636,572.727 709.091,627.273 654.545,627.273 709.091,681.818 
		818.182,572.727 	"/>
	
		<polygon style="fill:none;stroke:#000000;stroke-width:5.1136;stroke-linecap:round;stroke-linejoin:round;stroke-miterlimit:10;" points="
		845.455,572.727 736.364,463.636 709.091,463.636 818.182,572.727 	"/>
	
		<polygon style="fill:none;stroke:#000000;stroke-width:5.1136;stroke-linecap:round;stroke-linejoin:round;stroke-miterlimit:10;" points="
		872.727,572.727 900,572.727 790.909,463.636 763.636,463.636 	"/>
	
		<polygon style="fill:none;stroke:#000000;stroke-width:5.1136;stroke-linecap:round;stroke-linejoin:round;stroke-miterlimit:10;" points="
		818.182,572.727 709.091,681.818 736.364,681.818 845.455,572.727 	"/>
	
		<polygon style="fill:none;stroke:#000000;stroke-width:5.1136;stroke-linecap:round;stroke-linejoin:round;stroke-miterlimit:10;" points="
		763.636,681.818 790.909,681.818 900,572.727 872.727,572.727 	"/>
	
		<polygon style="fill:none;stroke:#000000;stroke-width:5.1136;stroke-linecap:round;stroke-linejoin:round;stroke-miterlimit:10;" points="
		763.636,572.727 709.091,518.182 654.545,518.182 600,518.182 545.455,518.182 600,572.727 	"/>
	
		<rect x="506.885" y="534.158" transform="matrix(0.7071 -0.7071 0.7071 0.7071 -245.2194 553.4425)" style="fill:none;stroke:#000000;stroke-width:5.1136;stroke-linecap:round;stroke-linejoin:round;stroke-miterlimit:10;" width="77.139" height="77.139"/>
	
		<polygon style="fill:none;stroke:#000000;stroke-width:5.1136;stroke-linecap:round;stroke-linejoin:round;stroke-miterlimit:10;" points="
		545.455,627.273 654.545,627.273 709.091,627.273 763.636,572.727 600,572.727 	"/>
	<path style="fill:none;stroke:#000000;stroke-width:5.1136;stroke-linecap:round;stroke-linejoin:round;stroke-miterlimit:10;" d="
		M545.455,518.182L436.364,409.091l-27.273,27.273l-27.273,27.273l109.091,109.091L545.455,518.182z M436.364,490.909
		l-27.273-27.273l27.273-27.273l27.273,27.273l27.273,27.273l-27.273,27.273L436.364,490.909z M490.913,490.909l27.273,27.273
		l-27.273,27.273l-27.273-27.273L490.913,490.909z"/>
	
		<polygon style="fill:none;stroke:#000000;stroke-width:5.1136;stroke-linecap:round;stroke-linejoin:round;stroke-miterlimit:10;" points="
		409.091,381.818 381.818,409.091 381.818,463.636 409.091,436.364 	"/>
	
		<rect x="327.273" y="409.091" style="fill:none;stroke:#000000;stroke-width:5.1136;stroke-linecap:round;stroke-linejoin:round;stroke-miterlimit:10;" width="54.546" height="54.546"/>
	
		<polygon style="fill:none;stroke:#000000;stroke-width:5.1136;stroke-linecap:round;stroke-linejoin:round;stroke-miterlimit:10;" points="
		545.455,245.454 545.455,190.909 490.909,245.454 463.636,272.727 436.364,300 409.091,327.273 381.818,354.546 436.364,354.546 	
		"/>
	
		<polygon style="fill:none;stroke:#000000;stroke-width:5.1136;stroke-linecap:round;stroke-linejoin:round;stroke-miterlimit:10;" points="
		409.091,381.818 354.546,381.818 327.273,409.091 381.818,409.091 	"/>
	
		<polygon style="fill:none;stroke:#000000;stroke-width:5.1136;stroke-linecap:round;stroke-linejoin:round;stroke-miterlimit:10;" points="
		409.091,545.455 409.091,654.546 463.636,600 	"/>
	
		<polygon style="fill:none;stroke:#000000;stroke-width:5.1136;stroke-linecap:round;stroke-linejoin:round;stroke-miterlimit:10;" points="
		463.636,600 409.091,654.546 463.636,709.091 	"/>
	
		<polygon style="fill:none;stroke:#000000;stroke-width:5.1136;stroke-linecap:round;stroke-linejoin:round;stroke-miterlimit:10;" points="
		545.455,627.273 600,681.818 709.091,681.818 654.545,627.273 	"/>
	
		<polygon style="fill:none;stroke:#000000;stroke-width:5.1136;stroke-linecap:round;stroke-linejoin:round;stroke-miterlimit:10;" points="
		600,790.909 600,736.364 545.455,736.364 	"/>
	
		<polygon style="fill:none;stroke:#000000;stroke-width:5.1136;stroke-linecap:round;stroke-linejoin:round;stroke-miterlimit:10;" points="
		600,681.818 545.455,627.273 545.455,736.364 	"/>
	
		<polygon style="fill:none;stroke:#000000;stroke-width:5.1136;stroke-linecap:round;stroke-linejoin:round;stroke-miterlimit:10;" points="
		600,736.364 600,790.909 709.091,790.909 709.091,681.818 654.545,736.364 	"/>
	
		<polygon style="fill:none;stroke:#000000;stroke-width:5.1136;stroke-linecap:round;stroke-linejoin:round;stroke-miterlimit:10;" points="
		600,790.909 545.455,736.364 490.909,790.909 545.455,845.455 572.727,818.182 	"/>
	
		<polygon style="fill:none;stroke:#000000;stroke-width:5.1136;stroke-linecap:round;stroke-linejoin:round;stroke-miterlimit:10;" points="
		272.727,627.273 327.273,572.727 327.273,463.636 272.727,518.182 	"/>
	<path style="fill:none;stroke:#000000;stroke-width:5.1136;stroke-linecap:round;stroke-linejoin:round;stroke-miterlimit:10;" d="
		M600,218.182v-27.273v-27.273c-15.061,0-27.273-12.211-27.273-27.273v7.356v47.19C572.727,205.971,584.939,218.182,600,218.182z"/>
	
		<rect x="327.273" y="681.818" style="fill:none;stroke:#000000;stroke-width:5.1136;stroke-linecap:round;stroke-linejoin:round;stroke-miterlimit:10;" width="54.546" height="54.545"/>
	
		<polygon style="fill:none;stroke:#000000;stroke-width:5.1136;stroke-linecap:round;stroke-linejoin:round;stroke-miterlimit:10;" points="
		381.818,681.818 381.818,736.364 436.364,790.909 436.364,736.364 	"/>
	
		<polygon style="fill:none;stroke:#000000;stroke-width:5.1136;stroke-linecap:round;stroke-linejoin:round;stroke-miterlimit:10;" points="
		327.273,736.364 381.818,790.909 436.364,790.909 381.818,736.364 	"/>
	<path style="fill:none;stroke:#000000;stroke-width:5.1136;stroke-linecap:round;stroke-linejoin:round;stroke-miterlimit:10;" d="
		M490.909,790.909l-54.546-54.545v54.545v27.273h27.273c15.061,0,27.273,12.211,27.273,27.273c0,15.061-12.211,27.273-27.273,27.273
		h-27.273v81.818l109.091-109.091L490.909,790.909z"/>
	
		<polygon style="fill:none;stroke:#000000;stroke-width:5.1136;stroke-linecap:round;stroke-linejoin:round;stroke-miterlimit:10;" points="
		300,627.273 300,654.546 327.273,681.818 327.273,654.546 	"/>
	
		<polygon style="fill:none;stroke:#000000;stroke-width:5.1136;stroke-linecap:round;stroke-linejoin:round;stroke-miterlimit:10;" points="
		872.727,300 763.636,300 818.182,354.546 927.273,354.546 	"/>
	
		<rect x="376.17" y="247.794" transform="matrix(0.7071 -0.7071 0.7071 0.7071 -86.6636 363.5034)" style="fill:none;stroke:#000000;stroke-width:5.1136;stroke-linecap:round;stroke-linejoin:round;stroke-miterlimit:10;" width="38.569" height="77.139"/>
	
		<rect x="430.715" y="193.249" transform="matrix(0.7071 -0.7071 0.7071 0.7071 -32.1183 386.096)" style="fill:none;stroke:#000000;stroke-width:5.1136;stroke-linecap:round;stroke-linejoin:round;stroke-miterlimit:10;" width="38.569" height="77.139"/>
	<path style="fill:none;stroke:#000000;stroke-width:5.1136;stroke-linecap:round;stroke-linejoin:round;stroke-miterlimit:10;" d="
		M600,163.636v27.273v27.273c15.061,0,27.273-12.211,27.273-27.273v-47.19v-7.356C627.273,151.425,615.061,163.636,600,163.636z"/>
	
		<circle style="fill:none;stroke:#000000;stroke-width:5.1136;stroke-linecap:round;stroke-linejoin:round;stroke-miterlimit:10;" cx="600" cy="136.364" r="27.273"/>
	
		<polygon style="fill:none;stroke:#000000;stroke-width:5.1136;stroke-linecap:round;stroke-linejoin:round;stroke-miterlimit:10;" points="
		845.455,572.727 872.727,572.727 763.636,463.636 736.364,463.636 	"/>
	
		<polygon style="fill:none;stroke:#000000;stroke-width:5.1136;stroke-linecap:round;stroke-linejoin:round;stroke-miterlimit:10;" points="
		845.455,572.727 736.364,681.818 763.636,681.818 872.727,572.727 	"/>
	
		<polygon style="fill:none;stroke:#000000;stroke-width:5.1136;stroke-linecap:round;stroke-linejoin:round;stroke-miterlimit:10;" points="
		818.182,463.636 790.909,463.636 900,572.727 927.273,572.727 872.727,518.182 845.455,490.909 	"/>
	
		<polygon style="fill:none;stroke:#000000;stroke-width:5.1136;stroke-linecap:round;stroke-linejoin:round;stroke-miterlimit:10;" points="
		790.909,681.818 818.182,681.818 927.273,572.727 900,572.727 	"/>
	
		<polygon style="fill:none;stroke:#000000;stroke-width:5.1136;stroke-linecap:round;stroke-linejoin:round;stroke-miterlimit:10;" points="
		872.727,463.636 872.731,463.636 900,463.636 872.727,436.364 872.727,409.091 818.182,354.546 818.182,409.091 	"/>
	
		<polygon style="fill:none;stroke:#000000;stroke-width:5.1136;stroke-linecap:round;stroke-linejoin:round;stroke-miterlimit:10;" points="
		436.364,354.546 381.818,354.546 354.546,381.818 409.091,381.818 	"/>
	
		<polygon style="fill:none;stroke:#000000;stroke-width:5.1136;stroke-linecap:round;stroke-linejoin:round;stroke-miterlimit:10;" points="
		409.091,381.818 409.091,436.364 436.364,409.091 436.364,354.546 	"/>
	
		<rect x="471.628" y="498.897" transform="matrix(0.7071 -0.7071 0.7071 0.7071 -222.6249 498.8995)" style="fill:none;stroke:#000000;stroke-width:5.1136;stroke-linecap:round;stroke-linejoin:round;stroke-miterlimit:10;" width="38.569" height="38.569"/>
	
		<rect x="417.079" y="444.352" transform="matrix(0.7071 -0.7071 0.7071 0.7071 -200.0325 444.3528)" style="fill:none;stroke:#000000;stroke-width:5.1136;stroke-linecap:round;stroke-linejoin:round;stroke-miterlimit:10;" width="38.569" height="38.569"/>
	
		<rect x="444.352" y="471.624" transform="matrix(0.7071 -0.7071 0.7071 0.7071 -211.3292 471.6231)" style="fill:none;stroke:#000000;stroke-width:5.1136;stroke-linecap:round;stroke-linejoin:round;stroke-miterlimit:10;" width="38.569" height="38.569"/>
	
		<polygon style="fill:none;stroke:#000000;stroke-width:5.1136;stroke-linecap:round;stroke-linejoin:round;stroke-miterlimit:10;" points="
		572.727,818.182 545.455,845.455 654.545,845.455 681.818,818.182 	"/>
	
		<polygon style="fill:none;stroke:#000000;stroke-width:5.1136;stroke-linecap:round;stroke-linejoin:round;stroke-miterlimit:10;" points="
		654.545,900 681.818,872.727 681.818,818.182 654.545,845.455 	"/>
	
		<polygon style="fill:none;stroke:#000000;stroke-width:5.1136;stroke-linecap:round;stroke-linejoin:round;stroke-miterlimit:10;" points="
		654.545,927.273 654.545,981.818 681.818,954.546 681.818,900 	"/>
	<path style="fill:none;stroke:#000000;stroke-width:5.1136;stroke-linecap:round;stroke-linejoin:round;stroke-miterlimit:10;" d="
		M490.909,845.455c0-15.061-12.211-27.273-27.273-27.273h-27.273v54.545h27.273C478.698,872.727,490.909,860.516,490.909,845.455z"
		/>
	<path style="fill:none;stroke:#000000;stroke-width:5.1136;stroke-linecap:round;stroke-linejoin:round;stroke-miterlimit:10;" d="
		M409.091,818.182c-15.064,0-27.273,12.211-27.273,27.273c0,15.061,12.208,27.273,27.273,27.273h27.273v-54.545H409.091z"/>
	
		<polygon style="fill:none;stroke:#000000;stroke-width:5.1136;stroke-linecap:round;stroke-linejoin:round;stroke-miterlimit:10;" points="
		463.636,981.818 463.636,1009.091 490.909,981.818 	"/>
	
		<polygon style="fill:none;stroke:#000000;stroke-width:5.1136;stroke-linecap:round;stroke-linejoin:round;stroke-miterlimit:10;" points="
		518.182,1009.091 518.182,981.818 463.636,1036.364 463.636,1063.636 	"/>
	
		<polygon style="fill:none;stroke:#000000;stroke-width:5.1136;stroke-linecap:round;stroke-linejoin:round;stroke-miterlimit:10;" points="
		518.182,1009.091 463.636,1063.636 518.182,1063.636 518.182,1036.364 545.455,1009.091 	"/>
	
		<polygon style="fill:none;stroke:#000000;stroke-width:5.1136;stroke-linecap:round;stroke-linejoin:round;stroke-miterlimit:10;" points="
		927.273,436.364 954.545,409.091 927.273,409.091 900,436.364 	"/>
	
		<polygon style="fill:none;stroke:#000000;stroke-width:5.1136;stroke-linecap:round;stroke-linejoin:round;stroke-miterlimit:10;" points="
		845.458,490.909 872.731,490.909 900.003,463.636 900,463.636 872.731,463.636 	"/>
	
		<polygon style="fill:none;stroke:#000000;stroke-width:5.1136;stroke-linecap:round;stroke-linejoin:round;stroke-miterlimit:10;" points="
		845.458,490.909 872.731,518.182 900.003,518.182 872.731,490.909 	"/>
	
		<polygon style="fill:none;stroke:#000000;stroke-width:5.1136;stroke-linecap:round;stroke-linejoin:round;stroke-miterlimit:10;" points="
		900,436.364 927.273,463.636 954.549,463.636 927.273,436.364 	"/>
	
		<polygon style="fill:none;stroke:#000000;stroke-width:5.1136;stroke-linecap:round;stroke-linejoin:round;stroke-miterlimit:10;" points="
		763.636,763.636 736.364,790.909 818.182,872.727 872.727,872.727 	"/>
	
		<polygon style="fill:none;stroke:#000000;stroke-width:5.1136;stroke-linecap:round;stroke-linejoin:round;stroke-miterlimit:10;" points="
		709.091,818.182 709.091,845.455 709.091,872.727 709.091,927.273 818.182,927.273 	"/>
	
		<polygon style="fill:none;stroke:#000000;stroke-width:5.1136;stroke-linecap:round;stroke-linejoin:round;stroke-miterlimit:10;" points="
		736.364,790.909 709.091,818.182 818.182,927.273 845.455,900 818.182,872.727 	"/>
	
		<polygon style="fill:none;stroke:#000000;stroke-width:5.1136;stroke-linecap:round;stroke-linejoin:round;stroke-miterlimit:10;" points="
		763.636,763.636 872.727,872.727 900,845.455 804.545,750 790.909,736.364 	"/>
	
		<polygon style="fill:none;stroke:#000000;stroke-width:5.1136;stroke-linecap:round;stroke-linejoin:round;stroke-miterlimit:10;" points="
		600,736.364 654.545,736.364 709.091,681.818 600,681.818 	"/>
	
		<polygon style="fill:none;stroke:#000000;stroke-width:5.1136;stroke-linecap:round;stroke-linejoin:round;stroke-miterlimit:10;" points="
		600,736.364 600,681.818 545.455,736.364 	"/>
	
		<polygon style="fill:none;stroke:#000000;stroke-width:5.1136;stroke-linecap:round;stroke-linejoin:round;stroke-miterlimit:10;" points="
		572.727,354.546 600,381.818 600,327.273 	"/>
	
		<polygon style="fill:none;stroke:#000000;stroke-width:5.1136;stroke-linecap:round;stroke-linejoin:round;stroke-miterlimit:10;" points="
		600,327.273 600,381.818 627.273,354.546 	"/>
	
		<polygon style="fill:none;stroke:#000000;stroke-width:5.1136;stroke-linecap:round;stroke-linejoin:round;stroke-miterlimit:10;" points="
		572.727,409.091 600,436.364 600,381.818 	"/>
	
		<polygon style="fill:none;stroke:#000000;stroke-width:5.1136;stroke-linecap:round;stroke-linejoin:round;stroke-miterlimit:10;" points="
		600,381.818 600,436.364 627.273,409.091 	"/>
	
		<polygon style="fill:none;stroke:#000000;stroke-width:5.1136;stroke-linecap:round;stroke-linejoin:round;stroke-miterlimit:10;" points="
		600,272.727 572.727,300 600,327.273 600,300 	"/>
	
		<polygon style="fill:none;stroke:#000000;stroke-width:5.1136;stroke-linecap:round;stroke-linejoin:round;stroke-miterlimit:10;" points="
		627.273,300 600,272.727 600,300 600,327.273 	"/>
</g>
<line style="fill:none;stroke:#000000;stroke-width:5.1136;stroke-linecap:round;stroke-linejoin:round;stroke-miterlimit:10;" x1="709.091" y1="463.636" x2="763.636" y2="409.091"/>
<line style="fill:none;stroke:#000000;stroke-width:5.1136;stroke-linecap:round;stroke-linejoin:round;stroke-miterlimit:10;" x1="627.273" y1="518.182" x2="763.636" y2="381.818"/>
<line style="fill:none;stroke:#000000;stroke-width:5.1136;stroke-linecap:round;stroke-linejoin:round;stroke-miterlimit:10;" x1="763.636" y1="368.182" x2="613.636" y2="518.182"/>
<line style="fill:none;stroke:#000000;stroke-width:5.1136;stroke-linecap:round;stroke-linejoin:round;stroke-miterlimit:10;" x1="763.636" y1="395.454" x2="640.909" y2="518.182"/>
<line style="fill:none;stroke:#000000;stroke-width:5.1136;stroke-linecap:round;stroke-linejoin:round;stroke-miterlimit:10;" x1="763.636" y1="422.727" x2="722.727" y2="463.636"/>
<line style="fill:none;stroke:#000000;stroke-width:5.1136;stroke-linecap:round;stroke-linejoin:round;stroke-miterlimit:10;" x1="763.636" y1="436.364" x2="736.364" y2="463.636"/>
<line style="fill:none;stroke:#000000;stroke-width:5.1136;stroke-linecap:round;stroke-linejoin:round;stroke-miterlimit:10;" x1="763.636" y1="450" x2="750" y2="463.636"/>
<line style="fill:none;stroke:#000000;stroke-width:5.1136;stroke-linecap:round;stroke-linejoin:round;stroke-miterlimit:10;" x1="497.727" y1="361.364" x2="545.455" y2="313.636"/>
<line style="fill:none;stroke:#000000;stroke-width:5.1136;stroke-linecap:round;stroke-linejoin:round;stroke-miterlimit:10;" x1="504.546" y1="368.182" x2="545.455" y2="327.273"/>
<line style="fill:none;stroke:#000000;stroke-width:5.1136;stroke-linecap:round;stroke-linejoin:round;stroke-miterlimit:10;" x1="511.364" y1="375" x2="545.455" y2="340.909"/>
<line style="fill:none;stroke:#000000;stroke-width:5.1136;stroke-linecap:round;stroke-linejoin:round;stroke-miterlimit:10;" x1="654.545" y1="327.273" x2="695.455" y2="368.182"/>
<line style="fill:none;stroke:#000000;stroke-width:5.1136;stroke-linecap:round;stroke-linejoin:round;stroke-miterlimit:10;" x1="702.273" y1="361.364" x2="654.545" y2="313.636"/>
<line style="fill:none;stroke:#000000;stroke-width:5.1136;stroke-linecap:round;stroke-linejoin:round;stroke-miterlimit:10;" x1="654.545" y1="340.909" x2="688.636" y2="375"/>
<line style="fill:none;stroke:#000000;stroke-width:5.1136;stroke-linecap:round;stroke-linejoin:round;stroke-miterlimit:10;" x1="422.727" y1="204.546" x2="477.273" y2="259.091"/>
<line style="fill:none;stroke:#000000;stroke-width:5.1136;stroke-linecap:round;stroke-linejoin:round;stroke-miterlimit:10;" x1="470.454" y1="265.909" x2="415.909" y2="211.364"/>
<line style="fill:none;stroke:#000000;stroke-width:5.1136;stroke-linecap:round;stroke-linejoin:round;stroke-miterlimit:10;" x1="429.546" y1="197.727" x2="484.091" y2="252.273"/>
<line style="fill:none;stroke:#000000;stroke-width:5.1136;stroke-linecap:round;stroke-linejoin:round;stroke-miterlimit:10;" x1="375" y1="252.273" x2="429.546" y2="306.818"/>
<line style="fill:none;stroke:#000000;stroke-width:5.1136;stroke-linecap:round;stroke-linejoin:round;stroke-miterlimit:10;" x1="368.182" y1="259.091" x2="422.727" y2="313.636"/>
<line style="fill:none;stroke:#000000;stroke-width:5.1136;stroke-linecap:round;stroke-linejoin:round;stroke-miterlimit:10;" x1="361.364" y1="265.909" x2="415.909" y2="320.454"/>
<line style="fill:none;stroke:#000000;stroke-width:5.1136;stroke-linecap:round;stroke-linejoin:round;stroke-miterlimit:10;" x1="409.091" y1="395.454" x2="436.364" y2="368.182"/>
<line style="fill:none;stroke:#000000;stroke-width:5.1136;stroke-linecap:round;stroke-linejoin:round;stroke-miterlimit:10;" x1="409.091" y1="409.091" x2="436.364" y2="381.818"/>
<line style="fill:none;stroke:#000000;stroke-width:5.1136;stroke-linecap:round;stroke-linejoin:round;stroke-miterlimit:10;" x1="409.091" y1="422.727" x2="436.364" y2="395.454"/>
<line style="fill:none;stroke:#000000;stroke-width:5.1136;stroke-linecap:round;stroke-linejoin:round;stroke-miterlimit:10;" x1="415.909" y1="456.818" x2="443.182" y2="484.091"/>
<line style="fill:none;stroke:#000000;stroke-width:5.1136;stroke-linecap:round;stroke-linejoin:round;stroke-miterlimit:10;" x1="450" y1="477.273" x2="422.727" y2="450"/>
<line style="fill:none;stroke:#000000;stroke-width:5.1136;stroke-linecap:round;stroke-linejoin:round;stroke-miterlimit:10;" x1="429.546" y1="443.182" x2="456.818" y2="470.454"/>
<line style="fill:none;stroke:#000000;stroke-width:5.1136;stroke-linecap:round;stroke-linejoin:round;stroke-miterlimit:10;" x1="484.091" y1="497.727" x2="511.364" y2="525"/>
<line style="fill:none;stroke:#000000;stroke-width:5.1136;stroke-linecap:round;stroke-linejoin:round;stroke-miterlimit:10;" x1="504.546" y1="531.818" x2="477.273" y2="504.546"/>
<line style="fill:none;stroke:#000000;stroke-width:5.1136;stroke-linecap:round;stroke-linejoin:round;stroke-miterlimit:10;" x1="470.454" y1="511.364" x2="497.727" y2="538.636"/>
<line style="fill:none;stroke:#000000;stroke-width:5.1136;stroke-linecap:round;stroke-linejoin:round;stroke-miterlimit:10;" x1="559.091" y1="627.273" x2="613.636" y2="572.727"/>
<line style="fill:none;stroke:#000000;stroke-width:5.1136;stroke-linecap:round;stroke-linejoin:round;stroke-miterlimit:10;" x1="572.727" y1="627.273" x2="627.273" y2="572.727"/>
<line style="fill:none;stroke:#000000;stroke-width:5.1136;stroke-linecap:round;stroke-linejoin:round;stroke-miterlimit:10;" x1="586.364" y1="627.273" x2="640.909" y2="572.727"/>
<line style="fill:none;stroke:#000000;stroke-width:5.1136;stroke-linecap:round;stroke-linejoin:round;stroke-miterlimit:10;" x1="600" y1="627.273" x2="654.545" y2="572.727"/>
<line style="fill:none;stroke:#000000;stroke-width:5.1136;stroke-linecap:round;stroke-linejoin:round;stroke-miterlimit:10;" x1="613.636" y1="627.273" x2="668.182" y2="572.727"/>
<line style="fill:none;stroke:#000000;stroke-width:5.1136;stroke-linecap:round;stroke-linejoin:round;stroke-miterlimit:10;" x1="627.273" y1="627.273" x2="681.818" y2="572.727"/>
<line style="fill:none;stroke:#000000;stroke-width:5.1136;stroke-linecap:round;stroke-linejoin:round;stroke-miterlimit:10;" x1="640.909" y1="627.273" x2="695.455" y2="572.727"/>
<line style="fill:none;stroke:#000000;stroke-width:5.1136;stroke-linecap:round;stroke-linejoin:round;stroke-miterlimit:10;" x1="654.545" y1="627.273" x2="709.091" y2="572.727"/>
<line style="fill:none;stroke:#000000;stroke-width:5.1136;stroke-linecap:round;stroke-linejoin:round;stroke-miterlimit:10;" x1="668.182" y1="627.273" x2="722.727" y2="572.727"/>
<line style="fill:none;stroke:#000000;stroke-width:5.1136;stroke-linecap:round;stroke-linejoin:round;stroke-miterlimit:10;" x1="681.818" y1="627.273" x2="736.364" y2="572.727"/>
<line style="fill:none;stroke:#000000;stroke-width:5.1136;stroke-linecap:round;stroke-linejoin:round;stroke-miterlimit:10;" x1="695.455" y1="627.273" x2="750" y2="572.727"/>
<line style="fill:none;stroke:#000000;stroke-width:5.1136;stroke-linecap:round;stroke-linejoin:round;stroke-miterlimit:10;" x1="750" y1="463.636" x2="859.091" y2="572.727"/>
<line style="fill:none;stroke:#000000;stroke-width:5.1136;stroke-linecap:round;stroke-linejoin:round;stroke-miterlimit:10;" x1="804.545" y1="463.636" x2="913.636" y2="572.727"/>
<line style="fill:none;stroke:#000000;stroke-width:5.1136;stroke-linecap:round;stroke-linejoin:round;stroke-miterlimit:10;" x1="859.091" y1="572.727" x2="750" y2="681.818"/>
<line style="fill:none;stroke:#000000;stroke-width:5.1136;stroke-linecap:round;stroke-linejoin:round;stroke-miterlimit:10;" x1="913.636" y1="572.727" x2="804.545" y2="681.818"/>
<line style="fill:none;stroke:#000000;stroke-width:5.1136;stroke-linecap:round;stroke-linejoin:round;stroke-miterlimit:10;" x1="272.727" y1="531.818" x2="327.273" y2="477.273"/>
<line style="fill:none;stroke:#000000;stroke-width:5.1136;stroke-linecap:round;stroke-linejoin:round;stroke-miterlimit:10;" x1="272.727" y1="545.455" x2="327.273" y2="490.909"/>
<line style="fill:none;stroke:#000000;stroke-width:5.1136;stroke-linecap:round;stroke-linejoin:round;stroke-miterlimit:10;" x1="272.727" y1="559.091" x2="327.273" y2="504.546"/>
<line style="fill:none;stroke:#000000;stroke-width:5.1136;stroke-linecap:round;stroke-linejoin:round;stroke-miterlimit:10;" x1="272.727" y1="572.727" x2="327.273" y2="518.182"/>
<line style="fill:none;stroke:#000000;stroke-width:5.1136;stroke-linecap:round;stroke-linejoin:round;stroke-miterlimit:10;" x1="272.727" y1="586.364" x2="327.273" y2="531.818"/>
<line style="fill:none;stroke:#000000;stroke-width:5.1136;stroke-linecap:round;stroke-linejoin:round;stroke-miterlimit:10;" x1="272.727" y1="600" x2="327.273" y2="545.455"/>
<line style="fill:none;stroke:#000000;stroke-width:5.1136;stroke-linecap:round;stroke-linejoin:round;stroke-miterlimit:10;" x1="272.727" y1="613.636" x2="327.273" y2="559.091"/>
<line style="fill:none;stroke:#000000;stroke-width:5.1136;stroke-linecap:round;stroke-linejoin:round;stroke-miterlimit:10;" x1="340.909" y1="736.364" x2="395.454" y2="790.909"/>
<line style="fill:none;stroke:#000000;stroke-width:5.1136;stroke-linecap:round;stroke-linejoin:round;stroke-miterlimit:10;" x1="354.546" y1="736.364" x2="409.091" y2="790.909"/>
<line style="fill:none;stroke:#000000;stroke-width:5.1136;stroke-linecap:round;stroke-linejoin:round;stroke-miterlimit:10;" x1="368.182" y1="736.364" x2="422.727" y2="790.909"/>
<line style="fill:none;stroke:#000000;stroke-width:5.1136;stroke-linecap:round;stroke-linejoin:round;stroke-miterlimit:10;" x1="409.091" y1="640.909" x2="456.818" y2="593.182"/>
<line style="fill:none;stroke:#000000;stroke-width:5.1136;stroke-linecap:round;stroke-linejoin:round;stroke-miterlimit:10;" x1="450" y1="586.364" x2="409.091" y2="627.273"/>
<line style="fill:none;stroke:#000000;stroke-width:5.1136;stroke-linecap:round;stroke-linejoin:round;stroke-miterlimit:10;" x1="443.182" y1="579.545" x2="409.091" y2="613.636"/>
<line style="fill:none;stroke:#000000;stroke-width:5.1136;stroke-linecap:round;stroke-linejoin:round;stroke-miterlimit:10;" x1="436.364" y1="572.727" x2="409.091" y2="600"/>
<line style="fill:none;stroke:#000000;stroke-width:5.1136;stroke-linecap:round;stroke-linejoin:round;stroke-miterlimit:10;" x1="429.546" y1="565.909" x2="409.091" y2="586.364"/>
<line style="fill:none;stroke:#000000;stroke-width:5.1136;stroke-linecap:round;stroke-linejoin:round;stroke-miterlimit:10;" x1="422.727" y1="559.091" x2="409.091" y2="572.727"/>
<line style="fill:none;stroke:#000000;stroke-width:5.1136;stroke-linecap:round;stroke-linejoin:round;stroke-miterlimit:10;" x1="415.909" y1="552.273" x2="409.091" y2="559.091"/>
<line style="fill:none;stroke:#000000;stroke-width:5.1136;stroke-linecap:round;stroke-linejoin:round;stroke-miterlimit:10;" x1="790.909" y1="736.364" x2="818.182" y2="709.091"/>
<line style="fill:none;stroke:#000000;stroke-width:5.1136;stroke-linecap:round;stroke-linejoin:round;stroke-miterlimit:10;" x1="818.182" y1="722.727" x2="797.727" y2="743.182"/>
<line style="fill:none;stroke:#000000;stroke-width:5.1136;stroke-linecap:round;stroke-linejoin:round;stroke-miterlimit:10;" x1="818.182" y1="695.455" x2="681.818" y2="831.818"/>
<line style="fill:none;stroke:#000000;stroke-width:5.1136;stroke-linecap:round;stroke-linejoin:round;stroke-miterlimit:10;" x1="709.091" y1="818.182" x2="681.818" y2="845.455"/>
<line style="fill:none;stroke:#000000;stroke-width:5.1136;stroke-linecap:round;stroke-linejoin:round;stroke-miterlimit:10;" x1="709.091" y1="831.818" x2="681.818" y2="859.091"/>
<line style="fill:none;stroke:#000000;stroke-width:5.1136;stroke-linecap:round;stroke-linejoin:round;stroke-miterlimit:10;" x1="654.545" y1="872.727" x2="545.455" y2="981.818"/>
<line style="fill:none;stroke:#000000;stroke-width:5.1136;stroke-linecap:round;stroke-linejoin:round;stroke-miterlimit:10;" x1="545.455" y1="968.182" x2="654.545" y2="859.091"/>
<line style="fill:none;stroke:#000000;stroke-width:5.1136;stroke-linecap:round;stroke-linejoin:round;stroke-miterlimit:10;" x1="654.545" y1="886.364" x2="545.455" y2="995.455"/>
<line style="fill:none;stroke:#000000;stroke-width:5.1136;stroke-linecap:round;stroke-linejoin:round;stroke-miterlimit:10;" x1="681.818" y1="927.273" x2="709.091" y2="900"/>
<line style="fill:none;stroke:#000000;stroke-width:5.1136;stroke-linecap:round;stroke-linejoin:round;stroke-miterlimit:10;" x1="681.818" y1="913.636" x2="709.091" y2="886.364"/>
<line style="fill:none;stroke:#000000;stroke-width:5.1136;stroke-linecap:round;stroke-linejoin:round;stroke-miterlimit:10;" x1="681.818" y1="940.909" x2="709.091" y2="913.636"/>
<line style="fill:none;stroke:#000000;stroke-width:5.1136;stroke-linecap:round;stroke-linejoin:round;stroke-miterlimit:10;" x1="654.545" y1="940.909" x2="545.455" y2="1050"/>
<line style="fill:none;stroke:#000000;stroke-width:5.1136;stroke-linecap:round;stroke-linejoin:round;stroke-miterlimit:10;" x1="654.545" y1="954.546" x2="545.455" y2="1063.636"/>
<line style="fill:none;stroke:#000000;stroke-width:5.1136;stroke-linecap:round;stroke-linejoin:round;stroke-miterlimit:10;" x1="654.545" y1="968.182" x2="545.455" y2="1077.273"/>
<line style="fill:none;stroke:#000000;stroke-width:5.1136;stroke-linecap:round;stroke-linejoin:round;stroke-miterlimit:10;" x1="463.636" y1="1050" x2="518.182" y2="995.455"/>
<line style="fill:none;stroke:#000000;stroke-width:5.1136;stroke-linecap:round;stroke-linejoin:round;stroke-miterlimit:10;" x1="572.727" y1="818.182" x2="600" y2="845.455"/>
<line style="fill:none;stroke:#000000;stroke-width:5.1136;stroke-linecap:round;stroke-linejoin:round;stroke-miterlimit:10;" x1="586.364" y1="845.455" x2="565.909" y2="825"/>
<line style="fill:none;stroke:#000000;stroke-width:5.1136;stroke-linecap:round;stroke-linejoin:round;stroke-miterlimit:10;" x1="572.727" y1="845.455" x2="559.091" y2="831.818"/>
<line style="fill:none;stroke:#000000;stroke-width:5.1136;stroke-linecap:round;stroke-linejoin:round;stroke-miterlimit:10;" x1="559.091" y1="845.455" x2="552.273" y2="838.636"/>
<line style="fill:none;stroke:#000000;stroke-width:5.1136;stroke-linecap:round;stroke-linejoin:round;stroke-miterlimit:10;" x1="586.364" y1="818.182" x2="613.636" y2="845.455"/>
<line style="fill:none;stroke:#000000;stroke-width:5.1136;stroke-linecap:round;stroke-linejoin:round;stroke-miterlimit:10;" x1="600" y1="818.182" x2="627.273" y2="845.455"/>
<line style="fill:none;stroke:#000000;stroke-width:5.1136;stroke-linecap:round;stroke-linejoin:round;stroke-miterlimit:10;" x1="613.636" y1="818.182" x2="640.909" y2="845.455"/>
<line style="fill:none;stroke:#000000;stroke-width:5.1136;stroke-linecap:round;stroke-linejoin:round;stroke-miterlimit:10;" x1="627.273" y1="818.182" x2="654.545" y2="845.455"/>
<line style="fill:none;stroke:#000000;stroke-width:5.1136;stroke-linecap:round;stroke-linejoin:round;stroke-miterlimit:10;" x1="640.909" y1="818.182" x2="661.364" y2="838.636"/>
<line style="fill:none;stroke:#000000;stroke-width:5.1136;stroke-linecap:round;stroke-linejoin:round;stroke-miterlimit:10;" x1="654.545" y1="818.182" x2="668.182" y2="831.818"/>
<line style="fill:none;stroke:#000000;stroke-width:5.1136;stroke-linecap:round;stroke-linejoin:round;stroke-miterlimit:10;" x1="668.182" y1="818.182" x2="675" y2="825"/>
<line style="fill:none;stroke:#000000;stroke-width:5.1136;stroke-linecap:round;stroke-linejoin:round;stroke-miterlimit:10;" x1="777.273" y1="300" x2="831.818" y2="354.546"/>
<line style="fill:none;stroke:#000000;stroke-width:5.1136;stroke-linecap:round;stroke-linejoin:round;stroke-miterlimit:10;" x1="790.909" y1="300" x2="845.455" y2="354.546"/>
<line style="fill:none;stroke:#000000;stroke-width:5.1136;stroke-linecap:round;stroke-linejoin:round;stroke-miterlimit:10;" x1="804.545" y1="300" x2="859.091" y2="354.546"/>
<line style="fill:none;stroke:#000000;stroke-width:5.1136;stroke-linecap:round;stroke-linejoin:round;stroke-miterlimit:10;" x1="818.182" y1="300" x2="872.727" y2="354.546"/>
<line style="fill:none;stroke:#000000;stroke-width:5.1136;stroke-linecap:round;stroke-linejoin:round;stroke-miterlimit:10;" x1="831.818" y1="300" x2="886.364" y2="354.546"/>
<line style="fill:none;stroke:#000000;stroke-width:5.1136;stroke-linecap:round;stroke-linejoin:round;stroke-miterlimit:10;" x1="845.455" y1="300" x2="900" y2="354.546"/>
<line style="fill:none;stroke:#000000;stroke-width:5.1136;stroke-linecap:round;stroke-linejoin:round;stroke-miterlimit:10;" x1="859.091" y1="300" x2="913.636" y2="354.546"/>
<rect x="218.182" y="518.182" style="fill:none;stroke:#000000;stroke-width:5.1136;stroke-linecap:round;stroke-linejoin:round;stroke-miterlimit:10;" width="27.273" height="109.091"/>
<rect x="763.636" y="259.091" style="fill:none;stroke:#000000;stroke-width:5.1136;stroke-linecap:round;stroke-linejoin:round;stroke-miterlimit:10;" width="109.091" height="13.636"/>
</svg>
